# Blender v2.78 (sub 0) OBJ File: ''
# www.blender.org
mtllib trap.mtl
o Torus
v 2.552516 0.000000 0.000000
v 2.458389 0.195458 0.000000
v 2.246886 0.243732 0.000000
v 2.077274 0.108471 0.000000
v 2.077274 -0.108471 0.000000
v 2.246886 -0.243732 0.000000
v 2.458389 -0.195458 0.000000
v 2.151252 0.000000 -0.968736
v 2.084694 0.195458 -0.902178
v 1.935139 0.243732 -0.752623
v 1.815205 0.108471 -0.632689
v 1.815205 -0.108471 -0.632689
v 1.935139 -0.243732 -0.752623
v 2.084694 -0.195458 -0.902178
v 1.182516 0.000000 -1.370000
v 1.182516 0.195458 -1.275872
v 1.182516 0.243732 -1.064370
v 1.182516 0.108471 -0.894758
v 1.182516 -0.108471 -0.894758
v 1.182516 -0.243732 -1.064370
v 1.182516 -0.195458 -1.275872
v 0.213780 0.000000 -0.968736
v 0.280338 0.195458 -0.902178
v 0.429893 0.243732 -0.752623
v 0.549827 0.108471 -0.632689
v 0.549827 -0.108471 -0.632689
v 0.429893 -0.243732 -0.752623
v 0.280338 -0.195458 -0.902178
v -0.187484 0.000000 -0.000000
v -0.093356 0.195458 -0.000000
v 0.118146 0.243732 -0.000000
v 0.287758 0.108471 -0.000000
v 0.287758 -0.108471 -0.000000
v 0.118146 -0.243732 -0.000000
v -0.093356 -0.195458 -0.000000
v 0.213780 0.000000 0.968736
v 0.280338 0.195458 0.902178
v 0.429893 0.243732 0.752623
v 0.549827 0.108471 0.632689
v 0.549827 -0.108471 0.632689
v 0.429893 -0.243732 0.752623
v 0.280338 -0.195458 0.902178
v 1.182516 0.000000 1.370000
v 1.182516 0.195458 1.275872
v 1.182516 0.243732 1.064370
v 1.182516 0.108471 0.894758
v 1.182516 -0.108471 0.894758
v 1.182516 -0.243732 1.064370
v 1.182516 -0.195458 1.275872
v 2.151252 0.000000 0.968737
v 2.084694 0.195458 0.902179
v 1.935139 0.243732 0.752624
v 1.815205 0.108471 0.632690
v 1.815205 -0.108471 0.632690
v 1.935139 -0.243732 0.752624
v 2.084694 -0.195458 0.902179
v 1.669260 0.696638 -0.184313
v 1.657025 0.696638 -0.213851
v 1.662603 0.691329 -0.184313
v 1.652318 0.691329 -0.209144
v 0.710406 0.698581 0.225525
v 0.718559 0.689386 0.217372
v 0.700744 0.689386 0.174361
v 0.689213 0.698581 0.174361
v 1.353384 0.723387 0.362522
v 1.347751 0.717034 0.356889
v 1.318036 0.717034 0.369197
v 1.045570 0.723108 -0.376223
v 1.013322 0.723108 -0.362865
v 1.045570 0.717313 -0.368955
v 1.318036 0.723387 0.377163
v 1.018461 0.717313 -0.357726
v -0.256659 0.197173 -0.617115
v -0.512276 0.197173 -0.000000
v -0.256659 0.197173 0.617115
v -0.302187 0.063474 -0.662642
v -0.576662 0.063474 -0.000000
v -0.302187 0.063474 0.662642
vn 0.8441 0.4065 -0.3496
vn 0.2216 0.9708 -0.0918
vn 0.6460 0.7149 -0.2676
vn -0.9239 0.0000 0.3827
vn -0.6037 -0.7570 0.2501
vn 0.2216 -0.9708 -0.0918
vn 0.8441 -0.4065 -0.3496
vn 0.3496 0.4065 -0.8441
vn 0.0918 0.9708 -0.2216
vn -0.2501 0.7570 0.6037
vn -0.3827 0.0000 0.9239
vn -0.2501 -0.7570 0.6037
vn 0.0918 -0.9708 -0.2216
vn 0.3496 -0.4065 -0.8441
vn -0.3496 0.4065 -0.8441
vn -0.0918 0.9708 -0.2216
vn -0.6230 0.1313 0.7711
vn 0.3827 0.0000 0.9239
vn 0.2501 -0.7570 0.6037
vn -0.0918 -0.9708 -0.2216
vn -0.3496 -0.4065 -0.8441
vn -0.4249 0.4181 -0.8029
vn -0.2216 0.9708 -0.0918
vn 0.6037 0.7570 0.2501
vn 0.9239 0.0000 0.3827
vn 0.6037 -0.7570 0.2501
vn -0.2216 -0.9708 -0.0918
vn -0.8441 -0.4065 -0.3496
vn 0.0041 1.0000 -0.0017
vn -0.2216 0.9708 0.0918
vn -0.8142 -0.4726 0.3372
vn 0.9239 0.0000 -0.3827
vn 0.6037 -0.7570 -0.2501
vn -0.2216 -0.9708 0.0918
vn -0.8441 -0.4065 0.3496
vn -0.3496 0.4065 0.8441
vn -0.0918 0.9708 0.2216
vn 0.2501 0.7570 -0.6037
vn 0.3827 0.0000 -0.9239
vn 0.2501 -0.7570 -0.6037
vn -0.0918 -0.9708 0.2216
vn -0.3496 -0.4065 0.8441
vn 0.3496 0.4065 0.8441
vn 0.0918 0.9708 0.2216
vn -0.9861 0.1300 -0.1037
vn -0.3827 0.0000 -0.9239
vn -0.2501 -0.7570 -0.6037
vn 0.0918 -0.9708 0.2216
vn 0.3496 -0.4065 0.8441
vn 0.8441 0.4065 0.3496
vn 0.2216 0.9708 0.0918
vn -0.6037 0.7570 -0.2501
vn -0.9239 0.0000 -0.3827
vn -0.6037 -0.7570 -0.2501
vn 0.2216 -0.9708 0.0918
vn 0.8441 -0.4065 0.3496
vn -0.6037 0.7570 0.2501
vn 0.6037 0.7570 -0.2501
vn -0.7948 0.1954 -0.5745
vn 0.7917 0.1860 0.5819
vn -0.1558 0.1954 0.9683
vn 0.8123 -0.4765 -0.3365
vn -0.6490 0.7117 0.2688
vn 0.1484 0.1860 -0.9713
vn 0.2501 0.7570 0.6037
vn -0.2501 0.7570 -0.6037
vn 0.6239 0.1300 -0.7706
vn -0.3116 -0.5804 -0.7524
vn 0.3118 -0.5799 0.7527
vn 0.2431 0.7722 0.5870
vn 0.9858 0.1313 0.1047
vn -0.2430 0.7726 -0.5866
vn -0.8441 0.4065 -0.3496
vn -0.8441 0.4065 0.3496
vn -0.1606 -0.9848 -0.0665
vn -0.1606 -0.9848 0.0665
vn -0.4249 0.4181 0.8029
vn 0.0041 1.0000 0.0017
usemtl None
s off
f 1//1 8//1 9//1 2//1
f 2//2 9//2 10//2 3//2
f 3//3 10//3 58//3 57//3
f 4//4 11//4 12//4 5//4
f 5//5 12//5 13//5 6//5
f 6//6 13//6 14//6 7//6
f 1//7 7//7 14//7 8//7
f 8//8 15//8 16//8 9//8
f 9//9 16//9 17//9 10//9
f 10//10 17//10 18//10 11//10
f 11//11 18//11 19//11 12//11
f 12//12 19//12 20//12 13//12
f 13//13 20//13 21//13 14//13
f 14//14 21//14 15//14 8//14
f 15//15 22//15 23//15 16//15
f 16//16 23//16 24//16 17//16
f 24//17 25//17 72//17 69//17
f 18//18 25//18 26//18 19//18
f 19//19 26//19 27//19 20//19
f 20//20 27//20 28//20 21//20
f 21//21 28//21 22//21 15//21
f 23//22 22//22 76//22 73//22
f 23//23 30//23 31//23 24//23
f 24//24 31//24 32//24 25//24
f 25//25 32//25 33//25 26//25
f 26//26 33//26 34//26 27//26
f 27//27 34//27 35//27 28//27
f 28//28 35//28 29//28 22//28
f 37//29 30//29 74//29 75//29
f 30//30 37//30 38//30 31//30
f 11//31 4//31 59//31 60//31
f 32//32 39//32 40//32 33//32
f 33//33 40//33 41//33 34//33
f 34//34 41//34 42//34 35//34
f 35//35 42//35 36//35 29//35
f 36//36 43//36 44//36 37//36
f 37//37 44//37 45//37 38//37
f 38//38 45//38 46//38 39//38
f 39//39 46//39 47//39 40//39
f 40//40 47//40 48//40 41//40
f 41//41 48//41 49//41 42//41
f 42//42 49//42 43//42 36//42
f 43//43 50//43 51//43 44//43
f 44//44 51//44 52//44 45//44
f 46//45 45//45 71//45 67//45
f 46//46 53//46 54//46 47//46
f 47//47 54//47 55//47 48//47
f 48//48 55//48 56//48 49//48
f 49//49 56//49 50//49 43//49
f 50//50 1//50 2//50 51//50
f 51//51 2//51 3//51 52//51
f 52//52 3//52 4//52 53//52
f 53//53 4//53 5//53 54//53
f 54//54 5//54 6//54 55//54
f 55//55 6//55 7//55 56//55
f 56//56 7//56 1//56 50//56
f 57//57 58//57 60//57 59//57
f 64//58 61//58 62//58 63//58
f 10//59 11//59 60//59 58//59
f 38//60 39//60 62//60 61//60
f 4//61 3//61 57//61 59//61
f 39//62 32//62 63//62 62//62
f 31//63 38//63 61//63 64//63
f 32//64 31//64 64//64 63//64
f 68//65 69//65 72//65 70//65
f 71//66 65//66 66//66 67//66
f 52//67 53//67 66//67 65//67
f 53//68 46//68 67//68 66//68
f 25//69 18//69 70//69 72//69
f 45//70 52//70 65//70 71//70
f 18//71 17//71 68//71 70//71
f 17//72 24//72 69//72 68//72
f 76//73 77//73 74//73 73//73
f 77//74 78//74 75//74 74//74
f 22//75 29//75 77//75 76//75
f 29//76 36//76 78//76 77//76
f 36//77 37//77 75//77 78//77
f 30//78 23//78 73//78 74//78
o Torus.001
v -0.265594 0.000000 0.000000
v -0.359722 0.195458 0.000000
v -0.571225 0.243732 0.000000
v -0.740837 0.108471 0.000000
v -0.740837 -0.108471 0.000000
v -0.571225 -0.243732 0.000000
v -0.359722 -0.195458 0.000000
v -0.666858 0.000000 -0.968736
v -0.733416 0.195458 -0.902178
v -0.882971 0.243732 -0.752623
v -1.002905 0.108471 -0.632689
v -1.002905 -0.108471 -0.632689
v -0.882971 -0.243732 -0.752623
v -0.733416 -0.195458 -0.902178
v -1.635594 0.000000 -1.370000
v -1.635594 0.195458 -1.275872
v -1.635594 0.243732 -1.064370
v -1.635594 0.108471 -0.894758
v -1.635594 -0.108471 -0.894758
v -1.635594 -0.243732 -1.064370
v -1.635594 -0.195458 -1.275872
v -2.604331 0.000000 -0.968736
v -2.537773 0.195458 -0.902178
v -2.388218 0.243732 -0.752623
v -2.268284 0.108471 -0.632689
v -2.268284 -0.108471 -0.632689
v -2.388218 -0.243732 -0.752623
v -2.537773 -0.195458 -0.902178
v -3.005594 0.000000 -0.000000
v -2.911467 0.195458 -0.000000
v -2.699964 0.243732 -0.000000
v -2.530352 0.108471 -0.000000
v -2.530352 -0.108471 -0.000000
v -2.699964 -0.243732 -0.000000
v -2.911467 -0.195458 -0.000000
v -2.604331 0.000000 0.968736
v -2.537773 0.195458 0.902178
v -2.388218 0.243732 0.752623
v -2.268284 0.108471 0.632689
v -2.268284 -0.108471 0.632689
v -2.388218 -0.243732 0.752623
v -2.537773 -0.195458 0.902178
v -1.635594 0.000000 1.370000
v -1.635594 0.195458 1.275872
v -1.635594 0.243732 1.064370
v -1.635594 0.108471 0.894758
v -1.635594 -0.108471 0.894758
v -1.635594 -0.243732 1.064370
v -1.635594 -0.195458 1.275872
v -0.666859 0.000000 0.968737
v -0.733417 0.195458 0.902179
v -0.882972 0.243732 0.752624
v -1.002905 0.108471 0.632690
v -1.002905 -0.108471 0.632690
v -0.882972 -0.243732 0.752624
v -0.733417 -0.195458 0.902179
v -1.148851 0.696638 -0.184313
v -1.161086 0.696638 -0.213851
v -1.155507 0.691329 -0.184313
v -1.165793 0.691329 -0.209144
v -2.107705 0.698581 0.225525
v -2.099551 0.689386 0.217372
v -2.117367 0.689386 0.174361
v -2.128897 0.698581 0.174361
v -1.464727 0.723387 0.362522
v -1.470360 0.717034 0.356889
v -1.500075 0.717034 0.369197
v -1.772541 0.723108 -0.376223
v -1.804789 0.723108 -0.362865
v -1.772541 0.717313 -0.368955
v -1.500075 0.723387 0.377163
v -1.799650 0.717313 -0.357726
v 0.044835 0.190782 0.000000
v -0.212075 0.190782 0.620237
v -0.166318 0.056407 0.665995
v 0.109547 0.056407 0.000000
v -0.166317 0.056407 -0.665995
v -0.212075 0.190782 -0.620237
vn 0.1484 -0.9870 0.0615
vn 0.2216 0.9708 -0.0918
vn 0.6460 0.7149 -0.2676
vn -0.9239 0.0000 0.3827
vn -0.6037 -0.7570 0.2501
vn 0.2216 -0.9708 -0.0918
vn 0.8441 -0.4065 -0.3496
vn 0.3496 0.4065 -0.8441
vn 0.0918 0.9708 -0.2216
vn -0.2501 0.7570 0.6037
vn -0.3827 0.0000 0.9239
vn -0.2501 -0.7570 0.6037
vn 0.0918 -0.9708 -0.2216
vn 0.3496 -0.4065 -0.8441
vn -0.3496 0.4065 -0.8441
vn -0.0918 0.9708 -0.2216
vn -0.6230 0.1313 0.7711
vn 0.3827 0.0000 0.9239
vn 0.2501 -0.7570 0.6037
vn -0.0918 -0.9708 -0.2216
vn -0.3496 -0.4065 -0.8441
vn -0.8441 0.4065 -0.3496
vn -0.2216 0.9708 -0.0918
vn 0.6037 0.7570 0.2501
vn 0.9239 0.0000 0.3827
vn 0.6037 -0.7570 0.2501
vn -0.2216 -0.9708 -0.0918
vn -0.8441 -0.4065 -0.3496
vn -0.8441 0.4065 0.3496
vn -0.2216 0.9708 0.0918
vn -0.8142 -0.4726 0.3372
vn 0.9239 0.0000 -0.3827
vn 0.6037 -0.7570 -0.2501
vn -0.2216 -0.9708 0.0918
vn -0.8441 -0.4065 0.3496
vn -0.3496 0.4065 0.8441
vn -0.0918 0.9708 0.2216
vn 0.2501 0.7570 -0.6037
vn 0.3827 0.0000 -0.9239
vn 0.2501 -0.7570 -0.6037
vn -0.0918 -0.9708 0.2216
vn -0.3496 -0.4065 0.8441
vn 0.3496 0.4065 0.8441
vn 0.0918 0.9708 0.2216
vn -0.9861 0.1300 -0.1037
vn -0.3827 0.0000 -0.9239
vn -0.2501 -0.7570 -0.6037
vn 0.0918 -0.9708 0.2216
vn 0.3496 -0.4065 0.8441
vn 0.4347 0.4194 -0.7969
vn 0.2216 0.9708 0.0918
vn -0.6037 0.7570 -0.2501
vn -0.9239 0.0000 -0.3827
vn -0.6037 -0.7570 -0.2501
vn 0.2216 -0.9708 0.0918
vn 0.8441 -0.4065 0.3496
vn -0.6037 0.7570 0.2501
vn 0.6037 0.7570 -0.2501
vn -0.7948 0.1954 -0.5745
vn 0.7917 0.1860 0.5819
vn -0.1558 0.1954 0.9683
vn 0.8123 -0.4765 -0.3365
vn -0.6490 0.7117 0.2688
vn 0.1484 0.1860 -0.9713
vn 0.2501 0.7570 0.6037
vn -0.2501 0.7570 -0.6037
vn 0.6239 0.1300 -0.7706
vn -0.3116 -0.5804 -0.7524
vn 0.3118 -0.5799 0.7527
vn 0.2431 0.7722 0.5870
vn 0.9858 0.1313 0.1047
vn -0.2430 0.7726 -0.5866
vn 0.8441 0.4065 -0.3496
vn 0.8441 0.4065 0.3496
vn 0.4347 0.4194 0.7969
vn 0.1484 -0.9870 -0.0615
vn 0.0116 0.9999 -0.0048
vn 0.0116 0.9999 0.0048
usemtl None
s off
f 128//79 79//79 154//79 153//79
f 80//80 87//80 88//80 81//80
f 81//81 88//81 136//81 135//81
f 82//82 89//82 90//82 83//82
f 83//83 90//83 91//83 84//83
f 84//84 91//84 92//84 85//84
f 79//85 85//85 92//85 86//85
f 86//86 93//86 94//86 87//86
f 87//87 94//87 95//87 88//87
f 88//88 95//88 96//88 89//88
f 89//89 96//89 97//89 90//89
f 90//90 97//90 98//90 91//90
f 91//91 98//91 99//91 92//91
f 92//92 99//92 93//92 86//92
f 93//93 100//93 101//93 94//93
f 94//94 101//94 102//94 95//94
f 102//95 103//95 150//95 147//95
f 96//96 103//96 104//96 97//96
f 97//97 104//97 105//97 98//97
f 98//98 105//98 106//98 99//98
f 99//99 106//99 100//99 93//99
f 100//100 107//100 108//100 101//100
f 101//101 108//101 109//101 102//101
f 102//102 109//102 110//102 103//102
f 103//103 110//103 111//103 104//103
f 104//104 111//104 112//104 105//104
f 105//105 112//105 113//105 106//105
f 106//106 113//106 107//106 100//106
f 107//107 114//107 115//107 108//107
f 108//108 115//108 116//108 109//108
f 89//109 82//109 137//109 138//109
f 110//110 117//110 118//110 111//110
f 111//111 118//111 119//111 112//111
f 112//112 119//112 120//112 113//112
f 113//113 120//113 114//113 107//113
f 114//114 121//114 122//114 115//114
f 115//115 122//115 123//115 116//115
f 116//116 123//116 124//116 117//116
f 117//117 124//117 125//117 118//117
f 118//118 125//118 126//118 119//118
f 119//119 126//119 127//119 120//119
f 120//120 127//120 121//120 114//120
f 121//121 128//121 129//121 122//121
f 122//122 129//122 130//122 123//122
f 124//123 123//123 149//123 145//123
f 124//124 131//124 132//124 125//124
f 125//125 132//125 133//125 126//125
f 126//126 133//126 134//126 127//126
f 127//127 134//127 128//127 121//127
f 86//128 87//128 156//128 155//128
f 129//129 80//129 81//129 130//129
f 130//130 81//130 82//130 131//130
f 131//131 82//131 83//131 132//131
f 132//132 83//132 84//132 133//132
f 133//133 84//133 85//133 134//133
f 134//134 85//134 79//134 128//134
f 135//135 136//135 138//135 137//135
f 142//136 139//136 140//136 141//136
f 88//137 89//137 138//137 136//137
f 116//138 117//138 140//138 139//138
f 82//139 81//139 135//139 137//139
f 117//140 110//140 141//140 140//140
f 109//141 116//141 139//141 142//141
f 110//142 109//142 142//142 141//142
f 146//143 147//143 150//143 148//143
f 149//144 143//144 144//144 145//144
f 130//145 131//145 144//145 143//145
f 131//146 124//146 145//146 144//146
f 103//147 96//147 148//147 150//147
f 123//148 130//148 143//148 149//148
f 96//149 95//149 146//149 148//149
f 95//150 102//150 147//150 146//150
f 154//151 155//151 156//151 151//151
f 153//152 154//152 151//152 152//152
f 129//153 128//153 153//153 152//153
f 79//154 86//154 155//154 154//154
f 87//155 80//155 151//155 156//155
f 80//156 129//156 152//156 151//156
