# Blender v2.78 (sub 0) OBJ File: ''
# www.blender.org
mtllib turretbase1.mtl
o Cylinder
v -0.004821 1.983527 -1.239686
v -0.004820 2.735609 -0.875944
v 0.193405 1.983527 -1.220162
v 0.122443 2.735609 -0.863410
v 0.384014 1.983527 -1.162342
v 0.244816 2.735609 -0.826289
v 0.559679 1.983527 -1.068447
v 0.357595 2.735609 -0.766007
v 0.713651 1.632347 -0.942085
v 0.456447 2.384429 -0.684881
v 0.840013 1.632347 -0.788113
v 0.537573 2.384429 -0.586029
v 0.933908 1.632347 -0.612448
v 0.597855 2.384429 -0.473250
v 0.991729 1.632347 -0.421839
v 0.634976 2.384429 -0.350877
v 1.011252 1.983527 -0.223613
v 0.647510 2.735609 -0.223613
v 0.991729 1.983527 -0.025388
v 0.634976 2.735609 -0.096350
v 0.933908 1.983527 0.165221
v 0.597855 2.735609 0.026023
v 0.840013 1.983527 0.340886
v 0.537573 2.735609 0.138802
v 0.713651 1.983527 0.494859
v 0.456447 2.735609 0.237654
v 0.559679 1.983527 0.621220
v 0.357595 2.735609 0.318780
v 0.384014 1.983527 0.715116
v 0.244816 2.735609 0.379062
v 0.193405 1.632347 0.772936
v 0.122443 2.384429 0.416183
v -0.004821 1.632347 0.792459
v -0.004821 2.384429 0.428717
v -0.203047 1.632347 0.772936
v -0.132084 2.384429 0.416183
v -0.393655 1.632347 0.715115
v -0.254457 2.384429 0.379062
v -0.569321 1.983527 0.621220
v -0.367236 2.735609 0.318780
v -0.723293 1.983527 0.494858
v -0.466088 2.735609 0.237654
v -0.849654 1.983527 0.340886
v -0.547214 2.735609 0.138802
v -0.943550 1.983527 0.165220
v -0.607496 2.735609 0.026022
v -1.001370 1.983527 -0.025388
v -0.644617 2.735609 -0.096351
v -1.020893 1.983527 -0.223614
v -0.657151 2.735609 -0.223614
v -1.001369 1.983527 -0.421840
v -0.644617 2.735609 -0.350878
v -0.943549 1.983527 -0.612449
v -0.607495 2.735609 -0.473250
v -0.849653 1.632347 -0.788114
v -0.547213 2.384429 -0.586030
v -0.723291 1.632347 -0.942086
v -0.466087 2.384429 -0.684882
v -0.569319 1.632347 -1.068448
v -0.367235 2.384429 -0.766007
v -0.393653 1.983527 -1.162343
v -0.254456 2.735609 -0.826289
v -0.203045 1.983527 -1.220163
v -0.132083 2.735609 -0.863410
vn 0.0883 0.4337 -0.8967
vn 0.2616 0.4337 -0.8623
vn 0.4248 0.4337 -0.7947
vn 0.9451 0.3174 -0.0773
vn 0.6965 0.4337 -0.5716
vn 0.7947 0.4337 -0.4248
vn 0.8623 0.4337 -0.2616
vn 0.5894 0.3174 -0.7429
vn 0.8967 0.4337 0.0883
vn 0.8623 0.4337 0.2616
vn 0.7947 0.4337 0.4248
vn 0.6965 0.4337 0.5716
vn 0.5716 0.4337 0.6965
vn 0.4248 0.4337 0.7947
vn -0.4608 0.3174 0.8288
vn 0.0883 0.4337 0.8967
vn -0.0883 0.4337 0.8967
vn -0.2616 0.4337 0.8623
vn 0.2902 0.3174 0.9028
vn -0.5716 0.4337 0.6965
vn -0.6965 0.4337 0.5716
vn -0.7947 0.4337 0.4248
vn -0.8623 0.4337 0.2616
vn -0.8967 0.4337 0.0883
vn -0.8967 0.4337 -0.0883
vn -0.8623 0.4337 -0.2616
vn -0.2602 0.3174 -0.9119
vn -0.6965 0.4337 -0.5716
vn -0.5716 0.4337 -0.6965
vn -0.9119 0.3174 -0.2602
vn 0.0325 0.9995 -0.0017
vn -0.2616 0.4337 -0.8623
vn -0.0883 0.4337 -0.8967
vn -0.0209 -0.9998 0.0011
usemtl None
s off
f 1//1 2//1 4//1 3//1
f 3//2 4//2 6//2 5//2
f 5//3 6//3 8//3 7//3
f 7//4 8//4 10//4 9//4
f 9//5 10//5 12//5 11//5
f 11//6 12//6 14//6 13//6
f 13//7 14//7 16//7 15//7
f 15//8 16//8 18//8 17//8
f 17//9 18//9 20//9 19//9
f 19//10 20//10 22//10 21//10
f 21//11 22//11 24//11 23//11
f 23//12 24//12 26//12 25//12
f 25//13 26//13 28//13 27//13
f 27//14 28//14 30//14 29//14
f 29//15 30//15 32//15 31//15
f 31//16 32//16 34//16 33//16
f 33//17 34//17 36//17 35//17
f 35//18 36//18 38//18 37//18
f 37//19 38//19 40//19 39//19
f 39//20 40//20 42//20 41//20
f 41//21 42//21 44//21 43//21
f 43//22 44//22 46//22 45//22
f 45//23 46//23 48//23 47//23
f 47//24 48//24 50//24 49//24
f 49//25 50//25 52//25 51//25
f 51//26 52//26 54//26 53//26
f 53//27 54//27 56//27 55//27
f 55//28 56//28 58//28 57//28
f 57//29 58//29 60//29 59//29
f 59//30 60//30 62//30 61//30
f 4//31 2//31 64//31 62//31 60//31 58//31 56//31 54//31 52//31 50//31 48//31 46//31 44//31 42//31 40//31 38//31 36//31 34//31 32//31 30//31 28//31 26//31 24//31 22//31 20//31 18//31 16//31 14//31 12//31 10//31 8//31 6//31
f 61//32 62//32 64//32 63//32
f 63//33 64//33 2//33 1//33
f 1//34 3//34 5//34 7//34 9//34 11//34 13//34 15//34 17//34 19//34 21//34 23//34 25//34 27//34 29//34 31//34 33//34 35//34 37//34 39//34 41//34 43//34 45//34 47//34 49//34 51//34 53//34 55//34 57//34 59//34 61//34 63//34
o Cube_Cube.001
v 0.217379 0.314623 0.833658
v 0.374896 2.013727 -0.273209
v 0.127799 0.322236 1.463135
v 0.285316 2.362194 0.356268
v -0.500437 0.314623 0.731506
v -0.342920 2.013727 -0.375361
v -0.590018 0.322236 1.360983
v -0.432501 2.362194 0.254116
v 0.092249 1.991279 0.652563
v -0.000355 0.791990 1.303289
v -0.422359 0.791990 1.243234
v -0.329755 1.991279 0.592508
v 0.092249 1.991279 0.652563
v -0.000355 0.791990 1.303289
v -0.422359 0.791990 1.243234
v -0.329755 1.991279 0.592508
vn 0.9900 0.0000 0.1409
vn -0.1350 0.2860 0.9487
vn -0.9900 -0.0000 -0.1409
vn 0.1177 -0.5497 -0.8270
vn -0.0017 -0.9999 0.0119
vn 0.0677 0.8769 -0.4758
vn 0.0000 0.0000 1.0000
vn -0.1066 0.6539 0.7491
vn 0.4595 0.3959 0.7950
vn -0.6631 0.3959 0.6353
vn -0.1236 0.4806 0.8682
usemtl None
s off
f 65//35 66//35 68//35 67//35
f 71//36 67//36 74//36 75//36
f 71//37 72//37 70//37 69//37
f 69//38 70//38 66//38 65//38
f 67//39 71//39 69//39 65//39
f 72//40 68//40 66//40 70//40
f 76//41 75//41 79//41 80//41
f 68//42 72//42 76//42 73//42
f 67//43 68//43 73//43 74//43
f 72//44 71//44 75//44 76//44
f 78//45 77//45 80//45 79//45
f 75//41 74//41 78//41 79//41
f 73//41 76//41 80//41 77//41
f 74//41 73//41 77//41 78//41
o Cube.001_Cube.002
v -0.949061 0.317929 -0.756215
v -0.224639 2.035228 0.095360
v -1.361041 0.343737 -1.240507
v -0.636620 2.383695 -0.388933
v -0.396805 0.317929 -1.226011
v 0.327617 2.035228 -0.374437
v -0.808785 0.343737 -1.710303
v -0.084363 2.383695 -0.858729
v -0.730561 2.043994 -0.713966
v -1.177117 0.786499 -1.238904
v -0.836689 0.786499 -1.528501
v -0.390133 2.043994 -1.003564
vn -0.7617 0.0000 0.6480
vn -0.4797 0.6722 -0.5639
vn 0.7617 -0.0000 -0.6480
vn 0.5430 -0.5456 0.6383
vn -0.0263 -0.9992 -0.0309
vn 0.3114 0.8769 0.3661
vn -0.5682 0.4806 -0.6679
vn -0.9151 0.3806 -0.1333
vn 0.0151 0.3806 -0.9246
vn -0.6252 0.2624 -0.7350
usemtl None
s off
f 81//46 82//46 84//46 83//46
f 84//47 88//47 92//47 89//47
f 87//48 88//48 86//48 85//48
f 85//49 86//49 82//49 81//49
f 83//50 87//50 85//50 81//50
f 88//51 84//51 82//51 86//51
f 90//52 89//52 92//52 91//52
f 83//53 84//53 89//53 90//53
f 88//54 87//54 91//54 92//54
f 87//55 83//55 90//55 91//55
o Cube.002_Cube.003
v 0.650352 0.276007 -1.047863
v -0.303175 2.035228 -0.464122
v 1.192625 0.343737 -1.379837
v 0.239098 2.383695 -0.796097
v 1.028915 0.276007 -0.429489
v 0.075388 2.035228 0.154251
v 1.571187 0.343737 -0.761463
v 0.617661 2.383695 -0.177723
v 0.622914 1.933278 -0.826440
v 1.117413 0.875356 -1.129167
v 1.313735 0.875356 -0.808479
v 0.819236 1.933278 -0.505751
vn -0.5221 0.0000 -0.8529
vn 0.9007 0.4326 -0.0405
vn 0.5221 -0.0000 0.8529
vn -0.7198 -0.5364 0.4407
vn 0.0903 -0.9944 -0.0553
vn -0.4099 0.8769 0.2509
vn 0.7479 0.4806 -0.4579
vn 0.8007 0.3444 -0.4902
vn 0.6784 0.6061 -0.4153
vn 0.4457 0.4326 -0.7837
usemtl None
s off
f 93//56 94//56 96//56 95//56
f 100//57 99//57 103//57 104//57
f 99//58 100//58 98//58 97//58
f 97//59 98//59 94//59 93//59
f 95//60 99//60 97//60 93//60
f 100//61 96//61 94//61 98//61
f 102//62 101//62 104//62 103//62
f 99//63 95//63 102//63 103//63
f 96//64 100//64 104//64 101//64
f 95//65 96//65 101//65 102//65
